<svg xmlns="http://www.w3.org/2000/svg" viewBox="0 0 256 256">
  <g id="Layer_1" data-name="Layer 1">
    <rect width="256" height="256" fill="#010202"/>
    <path d="M37.7368 152.132C38.5989 155.847 39.7924 159.023 41.3176 161.661C42.8428 164.299 44.6497 166.318 46.7384 167.718C48.8272 169.118 51.0983 169.818 53.5518 169.818C55.9391 169.818 58.1769 169.091 60.2658 167.637C62.3546 166.183 64.1781 164.137 65.7363 161.499C67.2945 158.861 68.5047 155.712 69.3668 152.051C70.2289 148.39 70.6598 144.298 70.6598 139.775V70H81.1036V183.062H70.7593V172.563C68.4385 176.547 65.703 179.616 62.5534 181.77C59.4035 183.923 56.0053 185 52.3583 185C48.6448 185 45.1801 183.95 41.964 181.85C38.7481 179.751 35.9629 176.763 33.6091 172.886C31.2552 169.01 29.3984 164.353 28.0391 158.915C26.6796 153.477 26 147.421 26 140.744V70H36.4438V139.775C36.4438 144.298 36.8747 148.416 37.7368 152.132Z" fill="#fff"/>
    <path d="M99.1054 70V111.187C101.426 107.418 104.112 104.43 107.162 102.223C110.212 100.015 113.528 98.9115 117.109 98.9115C120.822 98.9115 124.303 100.042 127.552 102.303C130.802 104.564 133.619 107.633 136.007 111.51C138.394 115.386 140.284 119.962 141.676 125.239C143.069 130.515 143.765 136.114 143.765 142.037C143.765 147.959 143.069 153.531 141.676 158.753C140.284 163.976 138.394 168.525 136.007 172.401C133.619 176.278 130.802 179.347 127.552 181.608C124.303 183.869 120.822 185 117.109 185C113.528 185 110.196 183.896 107.112 181.688C104.029 179.481 101.327 176.493 99.006 172.724V183.062H89.0596V70H99.1054ZM100.249 153.181C101.144 156.627 102.388 159.642 103.979 162.226C105.571 164.811 107.427 166.857 109.549 168.364C111.671 169.872 113.959 170.625 116.412 170.625C118.8 170.625 121.054 169.872 123.176 168.364C125.298 166.857 127.138 164.811 128.696 162.226C130.255 159.642 131.498 156.627 132.426 153.181C133.355 149.736 133.819 146.021 133.819 142.037C133.819 138.052 133.355 134.311 132.426 130.811C131.498 127.311 130.255 124.27 128.696 121.685C127.138 119.102 125.298 117.082 123.176 115.629C121.054 114.175 118.799 113.448 116.412 113.448C114.025 113.448 111.771 114.175 109.649 115.629C107.527 117.083 105.67 119.102 104.079 121.685C102.488 124.27 101.228 127.311 100.299 130.811C99.3709 134.311 98.9067 138.052 98.9067 142.037C98.9065 146.021 99.3541 149.736 100.249 153.181Z" fill="#fff"/>
    <path d="M149.434 125.401C150.76 120.232 152.584 115.683 154.905 111.753C157.225 107.823 159.978 104.727 163.16 102.466C166.343 100.205 169.791 99.0742 173.505 99.0742C177.152 99.0742 180.534 100.151 183.65 102.304C186.767 104.458 189.452 107.446 191.707 111.269C193.961 115.091 195.719 119.614 196.978 124.836C198.238 130.059 198.868 135.739 198.868 141.876V147.206H157.59C157.922 150.545 158.585 153.64 159.58 156.493C160.575 159.347 161.818 161.823 163.31 163.923C164.802 166.023 166.493 167.665 168.382 168.849C170.272 170.034 172.278 170.626 174.4 170.626C180.434 170.626 185.308 166.588 189.022 158.512L196.282 167.234C193.763 172.726 190.646 177.033 186.933 180.155C183.219 183.278 179.042 184.839 174.4 184.839C170.62 184.839 167.09 183.762 163.807 181.609C160.525 179.456 157.674 176.44 155.253 172.564C152.833 168.687 150.927 164.138 149.534 158.916C148.142 153.693 147.445 148.013 147.445 141.876C147.445 136.061 148.108 130.57 149.434 125.401ZM163.409 119.021C160.591 122.844 158.718 127.931 157.789 134.284H188.723C187.861 127.931 186.021 122.844 183.203 119.021C180.384 115.199 177.086 113.287 173.306 113.287C169.526 113.287 166.227 115.199 163.409 119.021Z" fill="#fff"/>
    <path d="M217.666 120.879C215.545 124.648 214.484 129.762 214.484 136.223V183.063H204.438V100.689H214.384V110.865C215.644 107.527 217.285 104.889 219.307 102.951C221.33 101.012 223.734 100.043 226.519 100.043H230V115.226H225.822C222.507 115.226 219.788 117.11 217.666 120.879Z" fill="#fff"/>
  </g>
</svg>
